<?xml version="1.0" encoding="UTF-8"?>
<svg width="700pt" height="700pt" version="1.1" viewBox="0 0 700 700" xmlns="http://www.w3.org/2000/svg">
 <path fill="#000000" d="m536.67 175c0 6.4414-5.2266 11.668-11.668 11.668h-350c-6.4414 0-11.668-5.2266-11.668-11.668v-23.332c0-6.4453 5.2266-11.668 11.668-11.668h350c6.4414 0 11.668 5.2227 11.668 11.668zm0 116.67c0 6.4414-5.2266 11.664-11.668 11.664h-350c-6.4414 0-11.668-5.2227-11.668-11.664v-23.336c0-6.4414 5.2266-11.664 11.668-11.664h350c6.4414 0 11.668 5.2227 11.668 11.664zm-11.668 128.33c6.4414 0 11.668-5.2227 11.668-11.668v-23.332c0-6.4414-5.2266-11.668-11.668-11.668h-350c-6.4414 0-11.668 5.2266-11.668 11.668v23.332c0 6.4453 5.2266 11.668 11.668 11.668z" fill-rule="evenodd"/>
</svg>
